<svg width="15" height="15" viewBox="0 0 15 15" fill="none" xmlns="http://www.w3.org/2000/svg">
<path d="M6.27344 14.3281C5.88281 14.3281 5.59375 14.1641 5.32031 13.8281L1.27344 8.76562C1.07812 8.52344 0.992188 8.29688 0.992188 8.0625C0.992188 7.52344 1.39062 7.13281 1.9375 7.13281C2.28125 7.13281 2.51562 7.25781 2.74219 7.5625L6.24219 12.0547L13.0312 1.27344C13.2656 0.90625 13.4922 0.773438 13.875 0.773438C14.4219 0.773438 14.7969 1.14844 14.7969 1.6875C14.7969 1.89844 14.7344 2.11719 14.5703 2.36719L7.22656 13.8203C7 14.1562 6.6875 14.3281 6.27344 14.3281Z" fill="#69E230"/>
</svg>
