<svg width="12" height="12" viewBox="0 0 12 12" fill="none" xmlns="http://www.w3.org/2000/svg">
<path d="M1.24219 11.4141C0.90625 11.0781 0.914062 10.5078 1.24219 10.1797L5.04688 6.36719L1.24219 2.5625C0.914062 2.23438 0.90625 1.66406 1.24219 1.32812C1.57812 0.992188 2.14844 1 2.47656 1.32031L6.28906 5.13281L10.0938 1.32812C10.4219 1 10.9922 0.992188 11.3281 1.32812C11.6641 1.66406 11.6562 2.23438 11.3281 2.5625L7.52344 6.36719L11.3281 10.1797C11.6562 10.5078 11.6641 11.0781 11.3281 11.4141C10.9922 11.75 10.4219 11.7422 10.0938 11.4141L6.28906 7.60938L2.47656 11.4141C2.14844 11.7422 1.57812 11.75 1.24219 11.4141Z" fill="#FF5449"/>
</svg>
